<svg width="42" height="42" viewBox="0 0 42 42" fill="none" xmlns="http://www.w3.org/2000/svg">
<circle cx="21" cy="21" r="21" fill="white"/>
<path d="M32 14.1351C31.191 14.4959 30.3219 14.7397 29.4082 14.8499C30.3509 14.2822 31.0562 13.3886 31.3925 12.336C30.5068 12.8655 29.5374 13.2382 28.5265 13.4379C27.8467 12.7074 26.9462 12.2232 25.965 12.0605C24.9837 11.8977 23.9766 12.0656 23.0999 12.5381C22.2231 13.0105 21.5259 13.761 21.1164 14.6731C20.7069 15.5852 20.6081 16.6079 20.8353 17.5823C19.0406 17.4916 17.2849 17.0221 15.6821 16.2043C14.0793 15.3865 12.6653 14.2387 11.5318 12.8352C11.1443 13.5081 10.9214 14.2882 10.9214 15.1191C10.921 15.867 11.104 16.6035 11.4542 17.2632C11.8044 17.9229 12.311 18.4854 12.929 18.9007C12.2123 18.8778 11.5114 18.6829 10.8846 18.3322V18.3907C10.8845 19.4397 11.2451 20.4565 11.905 21.2684C12.565 22.0803 13.4838 22.6375 14.5054 22.8453C13.8405 23.0264 13.1435 23.053 12.4668 22.9233C12.7551 23.8259 13.3166 24.6152 14.0727 25.1807C14.8288 25.7462 15.7417 26.0595 16.6835 26.0769C15.0847 27.3402 13.1101 28.0254 11.0774 28.0224C10.7174 28.0225 10.3576 28.0013 10 27.959C12.0633 29.2941 14.4651 30.0027 16.918 30C25.2215 30 29.7609 23.0783 29.7609 17.0752C29.7609 16.8802 29.756 16.6832 29.7473 16.4882C30.6302 15.8455 31.3924 15.0497 31.9981 14.1381L32 14.1351Z" fill="black"/>
</svg>
