<svg width="42" height="42" viewBox="0 0 42 42" fill="none" xmlns="http://www.w3.org/2000/svg">
<circle cx="21" cy="21" r="21" fill="white"/>
<path d="M31.1765 11.6627C29.3145 10.7947 27.2985 10.1647 25.1985 9.80072C25.18 9.80013 25.1617 9.80359 25.1448 9.81085C25.1279 9.8181 25.1127 9.82898 25.1005 9.84272C24.8485 10.3047 24.5545 10.9067 24.3585 11.3687C22.1311 11.0327 19.8659 11.0327 17.6385 11.3687C17.4425 10.8927 17.1485 10.3047 16.8825 9.84272C16.8685 9.81472 16.8265 9.80072 16.7845 9.80072C14.6845 10.1647 12.6825 10.7947 10.8065 11.6627C10.7925 11.6627 10.7785 11.6767 10.7645 11.6907C6.95646 17.3887 5.90646 22.9327 6.42446 28.4207C6.42446 28.4487 6.43846 28.4767 6.46646 28.4907C8.98645 30.3387 11.4085 31.4587 13.8025 32.2007C13.8445 32.2147 13.8865 32.2007 13.9005 32.1727C14.4605 31.4027 14.9645 30.5907 15.3985 29.7367C15.4265 29.6807 15.3985 29.6247 15.3425 29.6107C14.5445 29.3027 13.7885 28.9387 13.0465 28.5187C12.9905 28.4907 12.9905 28.4067 13.0325 28.3647C13.1865 28.2527 13.3405 28.1267 13.4945 28.0147C13.5225 27.9867 13.5645 27.9867 13.5925 28.0007C18.4085 30.1987 23.6025 30.1987 28.3625 28.0007C28.3905 27.9867 28.4325 27.9867 28.4605 28.0147C28.6145 28.1407 28.7685 28.2527 28.9225 28.3787C28.9785 28.4207 28.9785 28.5047 28.9085 28.5327C28.1805 28.9667 27.4105 29.3167 26.6125 29.6247C26.5565 29.6387 26.5425 29.7087 26.5565 29.7507C27.0045 30.6047 27.5085 31.4167 28.0545 32.1867C28.0965 32.2007 28.1385 32.2147 28.1805 32.2007C30.5885 31.4587 33.0105 30.3387 35.5304 28.4907C35.5584 28.4767 35.5725 28.4487 35.5725 28.4207C36.1884 22.0787 34.5504 16.5767 31.2325 11.6907C31.2185 11.6767 31.2045 11.6627 31.1765 11.6627ZM16.1265 25.0747C14.6845 25.0747 13.4805 23.7447 13.4805 22.1067C13.4805 20.4687 14.6565 19.1387 16.1265 19.1387C17.6105 19.1387 18.7865 20.4827 18.7725 22.1067C18.7725 23.7447 17.5965 25.0747 16.1265 25.0747ZM25.8845 25.0747C24.4425 25.0747 23.2385 23.7447 23.2385 22.1067C23.2385 20.4687 24.4145 19.1387 25.8845 19.1387C27.3685 19.1387 28.5445 20.4827 28.5305 22.1067C28.5305 23.7447 27.3685 25.0747 25.8845 25.0747Z" fill="black"/>
</svg>
